<svg height="512" viewBox="0 0 64 64" width="512" xmlns="http://www.w3.org/2000/svg" xmlns:xlink="http://www.w3.org/1999/xlink"><linearGradient id="New_Gradient_Swatch_copy_2" gradientUnits="userSpaceOnUse" x1="43" x2="43" y1="65.041" y2=".691"><stop offset="0" stop-color="#6713d2"/><stop offset="1" stop-color="#cc208e"/></linearGradient><linearGradient id="New_Gradient_Swatch_copy_2-3" x1="21" x2="21" xlink:href="#New_Gradient_Swatch_copy_2" y1="65.041" y2=".691"/><linearGradient id="New_Gradient_Swatch_copy_2-5" x1="31.996" x2="31.996" xlink:href="#New_Gradient_Swatch_copy_2" y1="65.041" y2=".691"/><linearGradient id="New_Gradient_Swatch_copy_2-6" x1="25.956" x2="25.956" xlink:href="#New_Gradient_Swatch_copy_2" y1="65.041" y2=".691"/><linearGradient id="New_Gradient_Swatch_copy_2-7" x1="32" x2="32" xlink:href="#New_Gradient_Swatch_copy_2" y1="65.041" y2=".691"/><linearGradient id="New_Gradient_Swatch_copy_2-8" x1="12" x2="12" xlink:href="#New_Gradient_Swatch_copy_2" y1="65.041" y2=".691"/><linearGradient id="New_Gradient_Swatch_copy_2-11" x1="38.044" x2="38.044" xlink:href="#New_Gradient_Swatch_copy_2" y1="65.041" y2=".691"/><linearGradient id="New_Gradient_Swatch_copy_2-12" x1="52" x2="52" xlink:href="#New_Gradient_Swatch_copy_2" y1="65.041" y2=".691"/><linearGradient id="New_Gradient_Swatch_copy_2-15" x1="50" x2="50" xlink:href="#New_Gradient_Swatch_copy_2" y1="65.041" y2=".691"/><linearGradient id="New_Gradient_Swatch_copy_2-17" x1="14" x2="14" xlink:href="#New_Gradient_Swatch_copy_2" y1="65.041" y2=".691"/><g id="Creativity-Idea"><path d="m42 8h2v4h-2z" fill="url(#New_Gradient_Swatch_copy_2)"/><path d="m42 14h2v2h-2z" fill="url(#New_Gradient_Swatch_copy_2)"/><path d="m20 8h2v4h-2z" fill="url(#New_Gradient_Swatch_copy_2-3)"/><path d="m20 14h2v2h-2z" fill="url(#New_Gradient_Swatch_copy_2-3)"/><path d="m15 28.013v.008c.308 1.019 6.406 2.979 17 2.979 10.551 0 16.637-1.943 16.992-3a.792.792 0 0 0 -.275-.32l-.015-.012a2.706 2.706 0 0 0 -.265-.176c-.024-.015-.051-.03-.078-.045a17.68 17.68 0 0 0 -5.12-1.553l-.178-.033c-.907-.163-1.933-.31-3.061-.437v3.576h-2v-3.766c-.936-.074-1.939-.13-3-.17-.03 1.23-.966 4.936-3 4.936s-2.967-3.706-3-4.935c-1.064.039-2.067.095-3 .169v3.766h-2v-3.576c-1.109.124-2.118.269-3.014.428l-.286.048a23.532 23.532 0 0 0 -4.037 1.067c-1.176.468-1.61.872-1.663 1.046z" fill="url(#New_Gradient_Swatch_copy_2-5)"/><path d="m26.449 15.649-2.006 5.351h2.939l.087-.174a.982.982 0 0 1 -.469-.826v-4.911a1 1 0 0 0 -.551.56z" fill="url(#New_Gradient_Swatch_copy_2-6)"/><path d="m49 30.458c-3.7 1.952-11.718 2.542-17 2.542s-13.3-.59-17-2.542v7.542c0 .447.033.887.067 1.325q.031.4.081.806c.035.277.078.55.126.823s.094.52.152.778c.062.276.135.547.211.817.067.243.133.486.211.726.1.291.205.576.316.861.079.206.154.413.242.616.148.341.313.672.483 1 .069.136.132.275.205.409.249.453.516.9.8 1.323l.01.016a17.158 17.158 0 0 0 3.254 3.586c.053.044.11.083.163.127q.488.393 1 .751c.166.114.336.223.507.332q.345.222.7.427c.239.137.48.271.726.4a16.872 16.872 0 0 0 15.646-.081c.122-.063.242-.128.362-.194a17.083 17.083 0 0 0 2.488-1.688l.129-.107a17.126 17.126 0 0 0 2.2-2.2c.032-.039.062-.078.094-.116q.469-.576.891-1.191c.015-.022.032-.044.046-.066.282-.417.542-.849.786-1.291.046-.085.09-.171.135-.256q.294-.555.547-1.135c.04-.091.083-.179.121-.27q.273-.657.491-1.34c.041-.127.076-.256.114-.384q.163-.555.29-1.125c.027-.123.059-.245.083-.369.092-.463.162-.932.216-1.407.017-.152.027-.3.04-.456.04-.478.073-.958.073-1.446zm-20 6.542h2v6a1 1 0 0 0 2 0v-6h2v6a3 3 0 0 1 -6 0zm-6 0a1 1 0 0 0 -1 1h-2a3 3 0 0 1 6 0h-2a1 1 0 0 0 -1-1zm9 14c-3.925 0-7-2.2-7-5h2c0 1.626 2.29 3 5 3s5-1.374 5-3h2c0 2.8-3.075 5-7 5zm10-13a1 1 0 0 0 -2 0h-2a3 3 0 0 1 6 0z" fill="url(#New_Gradient_Swatch_copy_2-7)"/><path d="m12.608 32.358-.056.031a3.142 3.142 0 0 0 -.347.222l-.036.03a3.021 3.021 0 0 0 -.53.53c-.025.033-.056.063-.08.1-.05.07-.091.146-.135.22s-.095.163-.136.249c-.031.067-.059.136-.086.206a2.885 2.885 0 0 0 -.1.331c-.015.06-.032.118-.044.178a2.758 2.758 0 0 0 0 1.1c.012.06.029.117.043.176a3.121 3.121 0 0 0 .1.336c.026.067.053.133.083.2a3 3 0 0 0 .149.273c.039.065.075.132.119.193a3.472 3.472 0 0 0 .526.558c.051.043.1.087.154.127a2.944 2.944 0 0 0 .267.17c.055.032.11.062.167.09a2.861 2.861 0 0 0 .3.133l.033.01v-5.637a3.133 3.133 0 0 0 -.391.174z" fill="url(#New_Gradient_Swatch_copy_2-8)"/><path d="m39 60v-4.353a18.784 18.784 0 0 1 -14 0v4.353z" fill="url(#New_Gradient_Swatch_copy_2-7)"/><path d="m33 25a1 1 0 0 0 -2 0 6.2 6.2 0 0 0 1 2.916 6.2 6.2 0 0 0 1-2.916z" fill="url(#New_Gradient_Swatch_copy_2-7)"/><path d="m37 20a.982.982 0 0 1 -.469.826l.087.174h2.939l-2.007-5.351a.993.993 0 0 0 -.55-.56z" fill="url(#New_Gradient_Swatch_copy_2-11)"/><path d="m51.392 37.642.056-.031a3.051 3.051 0 0 0 .347-.222l.036-.03a3.021 3.021 0 0 0 .53-.53c.025-.033.056-.063.08-.1.05-.07.091-.146.135-.22s.095-.163.136-.249c.031-.067.059-.137.086-.206a2.885 2.885 0 0 0 .1-.331c.015-.059.032-.118.044-.178a2.758 2.758 0 0 0 0-1.1c-.012-.06-.029-.119-.044-.178a2.809 2.809 0 0 0 -.1-.33c-.027-.07-.055-.14-.086-.207-.041-.086-.088-.168-.136-.249s-.085-.15-.135-.22c-.024-.034-.055-.064-.08-.1a3.021 3.021 0 0 0 -.53-.53l-.036-.03a3.142 3.142 0 0 0 -.347-.222l-.056-.03a3 3 0 0 0 -.392-.165v5.632a3.133 3.133 0 0 0 .392-.174z" fill="url(#New_Gradient_Swatch_copy_2-12)"/><path d="m32.613 21h-1.226l.334 1h.558z" fill="url(#New_Gradient_Swatch_copy_2-7)"/><path d="m33 19h2v-8.621a8.734 8.734 0 0 0 -1.518-5c-.752-1.089-1.282-1.379-1.482-1.379s-.73.29-1.482 1.376a8.734 8.734 0 0 0 -1.518 5v8.624h2v-6h2zm-1-9.882-1.553.782-.894-1.79 2-1a1 1 0 0 1 .894 0l2 1-.894 1.79z" fill="url(#New_Gradient_Swatch_copy_2-7)"/><path d="m49 11h2v5h-2z" fill="url(#New_Gradient_Swatch_copy_2-15)"/><path d="m49 18h2v2h-2z" fill="url(#New_Gradient_Swatch_copy_2-15)"/><g fill="url(#New_Gradient_Swatch_copy_2-17)"><path d="m13 11h2v5h-2z"/><path d="m13 18h2v2h-2z"/></g></g></svg>